<?xml version="1.0" encoding="utf-8"?>
<!-- Generator: Adobe Illustrator 21.1.0, SVG Export Plug-In . SVG Version: 6.00 Build 0)  -->
<svg version="1.1" id="Ebene_1" xmlns="http://www.w3.org/2000/svg" xmlns:xlink="http://www.w3.org/1999/xlink" x="0px" y="0px"
	 viewBox="0 0 248.9 59.2" style="enable-background:new 0 0 248.9 59.2;" xml:space="preserve">
<style type="text/css">
	.st0{clip-path:url(#SVGID_2_);}
</style>
<g>
	<g>
		<g>
			<defs>
				<rect id="SVGID_1_" width="248.8" height="59.1"/>
			</defs>
			<clipPath id="SVGID_2_">
				<use xlink:href="#SVGID_1_"  style="overflow:visible;"/>
			</clipPath>
			<path class="st0" d="M248.9,20.8c-0.4-4-0.8-5.7-1.7-7.8c-1.3-3-3.2-5.1-4.1-6c-6.2-6.3-14.5-6.8-17.5-6.8c0,0-9.5-0.3-15.9,5.5
				c-4,3.5-6.2,8.9-6.2,14.2c0,7.1,3.4,13.4,9.2,17.1c5.6,3.8,11.8,4.1,14.2,4.1c7.2,0,12.2-2.5,14.5-3.9c3.9-2.5,6.2-5.6,7.5-7.3
				l-3.3-2.3c-0.6,0.9-5.7,10-18.2,10c-4.9,0-9.5-1.5-13.1-4.1c-6.3-4.6-6.3-12.7-6.3-12.7H248.9z M243.7,17.4h-35.8
				c0,0,0.6-5.5,5.1-9.5c3.6-3.1,7.5-4.3,12.1-4.3c7.1,0,11.5,3.1,11.5,3.1C242.8,10.4,243.7,17.4,243.7,17.4 M202.1,9.5
				c0.6-1.1,1.3-2.1,2.1-3c-0.2-0.2-5.7-6.1-15.5-6.1c-3,0-11.3,0.6-17.1,7.7c-4.1,5-4.4,10.3-4.4,12.7c0,6.6,2.9,12.7,8.1,16.6
				c2.4,1.8,6.4,4,13.4,4c10.4,0,15.7-5.8,16.4-6.4c-0.8-0.9-1.6-1.9-2.3-2.9c-5,5.6-11.3,6-13.9,6c-2.1,0-8.2-0.3-12.9-5
				c-4.4-4.4-4.8-9.7-4.8-11.9c0-2,0.4-7.6,4.6-12c4.7-4.8,10.9-5.2,13-5.2C197.7,4,201.9,9.3,202.1,9.5 M174,48.8h-9.7v10.1h10.1
				v-0.8h-9.1v-4h8v-0.9h-8v-3.5h8.7V48.8z M163.6,0.5h-3.9v40.7h3.9V0.5z M156.5,41.2L140.1,23c3.6-0.2,7.3-0.3,10.3-2.6
				c3.9-2.9,4.2-7.2,4.2-8.8c0-1.1-0.1-3.9-1.8-6.5c-2.9-4.4-7.2-4.7-12.3-4.7h-24.7v40.7h3.9V22.9h15.2L151,41.1h5.5L156.5,41.2
				L156.5,41.2z M138.2,19.6h-18.4V3.9h20.9c2.3,0,4.6,0,6.6,1.3c2.8,1.9,3.1,5.3,3.1,6.3c0,1.8-0.6,3.3-0.9,3.9
				c-1.7,3.4-5.1,4-8.5,4.2C140,19.6,139.1,19.6,138.2,19.6 M100.7,3.9H113V0.5H73.9c2.9,1.3,4.7,3.4,4.7,3.4h18.3v37.4h3.9
				L100.7,3.9L100.7,3.9z M75.8,5C73.1,1.7,67,0,58.5,0c-2.9,0-9,0.3-13.4,2.8c-4.3,2.5-5.7,6.4-6.3,8.8l3.9,0.2
				c0.5-1.9,1.9-4.9,4.6-6.4c2.7-1.4,6-2,11.4-2s12.4,0.8,14.9,4.3l0,0l0,0C75.2,10.1,75,15,75,15c-14.1,0.1-27,0.3-32.4,4.3
				c-2.8,2.1-4.4,5.7-4.4,9.4c0,2.9,0.8,5.4,2.4,7.4c3.3,4.4,8.6,5.1,13.7,5.1c7.2,0,15.2-1.7,20.3-7.4c0,1.9,0.4,5.6,4.6,6.5
				c2,0.3,3.9-0.1,3.9-0.1v-2.6c-0.1,0-0.2,0-0.3,0c-5.4,0.4-4.8-6.1-4.6-7c0.1-0.6,0.5-6.1,0.5-12.7c0-6-0.6-8.4-1.1-10
				C77.1,7,76.5,6,75.8,5 M73.5,29.6c-1.4,2.7-3.8,4.2-4.6,4.6c-5.7,3.4-11.7,3.8-14,3.8c-7.5,0-10.6-3.3-10.6-3.3l0,0
				c-2.1-2.1-2.2-5-2.2-5.6c0-2.1,0.7-3.6,1.2-4.5c0,0,2.2-4.2,10.4-5.2c4.6-0.7,10.5-1,21.2-1.1V19C75,22,74.9,26.8,73.5,29.6
				 M35.3,9.7c0.5-1.3,1-2.5,1.7-3.5c-0.2-0.2-5.6-6-15.4-6c-3,0-11.3,0.6-17.1,7.7c-4.1,5-4.4,10.3-4.4,12.7
				c0,6.6,2.9,12.7,8.1,16.6c2.4,1.8,6.4,3.9,13.4,3.9c8.8,0,14.1-4.3,14.7-5c-0.6-1-1.1-2.3-1.5-3.5c-4.6,4.5-10.5,5.1-13,5.1
				c-2.1,0-8.2-0.3-12.9-5C4.5,28.3,4.1,23,4.1,20.8c0-2,0.4-7.6,4.6-12c4.7-4.8,10.9-5.2,13-5.2C31,3.7,35.1,9.4,35.3,9.7
				 M80.8,50.5c-1.1,1.3-1.2,2.7-1.2,3.3c0,1.7,0.8,3.3,2.1,4.3c0.6,0.5,1.7,1,3.5,1c1.9,0,3-0.7,3.7-1.2c0.9-0.7,1.3-1.4,1.6-1.8
				l-0.9-0.4c-0.3,0.5-0.4,0.7-0.7,0.9c-1.3,1.5-3,1.6-3.7,1.6c-0.5,0-2.2-0.1-3.4-1.3c-1.2-1.1-1.3-2.5-1.3-3.1
				c0-0.5,0.1-2,1.2-3.1c1.2-1.3,2.9-1.4,3.4-1.4s2.2,0.1,3.3,1.3c0.4,0.4,0.7,0.9,0.8,1.1l0.9-0.5c-0.3-0.5-0.6-0.9-1.1-1.3
				c-1.5-1.3-3.3-1.4-3.9-1.4S82.3,48.7,80.8,50.5 M100.4,51.8c-0.4,0.9-0.4,1.7-0.4,2.1c0,0.5,0,1.5,0.7,2.6
				c1.4,2.6,4.4,2.7,5.3,2.7c0.8,0,3.2-0.1,4.8-2.1c1-1.3,1.2-2.7,1.2-3.3c0-0.5-0.1-1.6-0.8-2.8c-1.5-2.4-4.3-2.5-5.1-2.5
				C103.6,48.5,101.3,49.5,100.4,51.8 M101.1,53.9c0-2,1.1-3.2,1.7-3.6c1.1-0.8,2.5-0.9,2.9-0.9c1.5-0.1,2.6,0.4,3,0.7
				c1.4,0.8,1.9,2.1,2,2.7c0.1,0.5,0.1,0.9,0.1,1.1c0,0.6-0.1,2.4-1.7,3.6c-1.2,0.9-2.7,1-3.2,1c-0.7,0-3.6-0.1-4.6-2.7
				C101.1,54.9,101.1,54.2,101.1,53.9 M122.6,56l-1.1,0.4c0.3,0.5,0.5,0.9,0.9,1.3c1.3,1.3,3.4,1.4,3.8,1.5c0.3,0,0.6,0,0.9,0
				c2.5,0,3.8-0.9,4.5-1.8c0.4-0.6,0.5-1.2,0.5-1.5c0-1-0.6-1.8-1.5-2.1c-0.9-0.4-2.3-0.5-4.5-0.8c-1-0.1-1.4-0.2-1.9-0.4
				c-0.2-0.1-0.8-0.4-0.8-1.1c0-0.3,0.1-0.6,0.2-0.7c0.2-0.3,0.5-0.5,0.7-0.7c1-0.6,2.3-0.6,2.6-0.6c1.3,0,2.7,0.3,3.6,1.2
				c0.1,0.1,0.2,0.3,0.3,0.4l0.9-0.5c-0.1-0.1-0.3-0.4-0.7-0.7c-1.5-1.2-3.4-1.3-4-1.3c-1,0-2.3,0.2-3.2,0.7
				c-0.8,0.5-1.4,1.3-1.4,2.2c0,1.2,0.9,1.7,1.2,1.9c0.6,0.3,1.4,0.4,2,0.5s1.2,0.2,1.8,0.2c0.7,0.1,2.5,0.3,3.1,0.8
				c0.2,0.1,0.5,0.5,0.5,1.1c0,0.7-0.5,1.3-1.1,1.7c-1.1,0.7-2.5,0.7-2.9,0.7c-1.6,0-2.6-0.4-3.2-0.7C123,57,122.7,56.3,122.6,56
				 M143.7,48.8h-1.3v10.1h0.9v-9c0.1,0.4,0.2,0.6,0.3,0.8l3.9,8.2h1l3.8-8.3c0.1-0.2,0.2-0.4,0.3-0.7v9h0.9V48.8h-1.3L148,58
				c-0.1-0.4-0.3-0.7-0.5-1.1L143.7,48.8z M193.5,48.8h-9.8v0.8h4.5v9.3h1v-9.3h4.3V48.8z M203.2,58.9h1V48.8h-1V58.9z M215.7,50.5
				c-1.1,1.3-1.2,2.7-1.2,3.3c0,1.7,0.8,3.3,2.1,4.3c0.6,0.5,1.7,1,3.5,1c1.9,0,3-0.7,3.7-1.2c0.9-0.7,1.3-1.4,1.6-1.8l-0.9-0.4
				c-0.3,0.5-0.4,0.7-0.7,0.9c-1.3,1.5-3,1.6-3.7,1.6c-0.6,0-2.2-0.1-3.4-1.3c-1.2-1.1-1.3-2.5-1.3-3.1c0-0.5,0.1-2,1.2-3.1
				c1.2-1.3,2.9-1.4,3.4-1.4s2.2,0.1,3.3,1.3c0.4,0.4,0.7,0.9,0.8,1.1l0.9-0.5c-0.3-0.5-0.6-0.9-1-1.3c-1.5-1.3-3.3-1.4-3.9-1.4
				C219.4,48.5,217.2,48.7,215.7,50.5 M235.8,56l-1.1,0.4c0.3,0.5,0.5,0.9,0.9,1.3c1.3,1.3,3.4,1.4,3.8,1.5c0.3,0,0.6,0,0.9,0
				c2.5,0,3.8-0.9,4.5-1.8c0.4-0.6,0.5-1.2,0.5-1.5c0-1-0.6-1.8-1.5-2.1c-0.9-0.4-2.3-0.5-4.5-0.8c-1-0.1-1.4-0.2-1.9-0.4
				c-0.2-0.1-0.8-0.4-0.8-1.1c0-0.3,0.1-0.6,0.2-0.7c0.2-0.3,0.5-0.5,0.7-0.7c1-0.6,2.3-0.6,2.6-0.6c1.3,0,2.7,0.3,3.6,1.2
				c0.1,0.1,0.2,0.3,0.3,0.4l0.9-0.5c-0.1-0.1-0.3-0.4-0.7-0.7c-1.5-1.2-3.4-1.3-4-1.3c-1,0-2.3,0.2-3.2,0.7
				c-0.8,0.5-1.4,1.3-1.4,2.2c0,1.2,0.8,1.7,1.2,1.9c0.6,0.3,1.4,0.4,2,0.5s1.2,0.2,1.8,0.2c0.8,0.1,2.5,0.3,3.1,0.8
				c0.2,0.1,0.5,0.5,0.5,1.1c0,0.7-0.5,1.3-1.1,1.7c-1.1,0.7-2.5,0.7-2.9,0.7c-1.6,0-2.6-0.4-3.2-0.7C236.2,57,235.9,56.3,235.8,56"
				/>
		</g>
	</g>
</g>
</svg>
